<svg width="12" height="12" viewBox="0 0 12 12" fill="none" xmlns="http://www.w3.org/2000/svg">
<g clip-path="url(#clip0_3_3634)">
<path d="M0.295306 0.524999C0.180462 0.567186 0.0562436 0.689062 0.0210873 0.792187C0.00702481 0.836718 -6.43777e-06 0.935155 0.00468106 1.01016C0.0117123 1.11797 0.0281186 1.16484 0.0843686 1.23281C0.220306 1.40156 0.239056 1.40625 0.939837 1.40625H1.56562L1.60077 1.56328C1.77656 2.33203 3.03281 7.54687 3.05624 7.60312C3.09374 7.69219 3.23437 7.82109 3.32343 7.84453C3.35859 7.85625 5.00624 7.86328 6.98437 7.86328H10.582L10.6805 7.81172C10.875 7.70625 10.8047 7.94297 11.5547 4.90781C11.8125 3.86016 12 3.05391 12 2.99062C12 2.8125 11.918 2.66953 11.7633 2.5875C11.6859 2.54531 11.5266 2.54297 7.23046 2.53125L2.77734 2.51953L2.57577 1.66406C2.46327 1.19297 2.35077 0.771093 2.32734 0.726562C2.3039 0.68203 2.23827 0.614061 2.18437 0.574218L2.08124 0.503905L1.23515 0.499218C0.555462 0.49453 0.367962 0.499218 0.295306 0.524999ZM10.957 3.47344C10.9523 3.48984 10.7555 4.27734 10.5211 5.21953L10.0969 6.9375H6.96562H3.83202L3.42421 5.21953C3.19921 4.27734 3.01171 3.48984 3.00468 3.47344C2.99765 3.45234 3.80156 3.44531 6.98202 3.44531C10.1601 3.44531 10.9641 3.45234 10.957 3.47344Z" fill="white"/>
<path d="M3.74998 8.51953C3.31638 8.61796 2.90857 8.93671 2.72341 9.32812C2.60388 9.58124 2.56873 9.73359 2.56873 9.99609C2.57107 10.2633 2.60623 10.4133 2.72341 10.6641C2.84529 10.9195 3.11248 11.1961 3.36326 11.325C4.19998 11.7586 5.21951 11.3461 5.49841 10.4672C5.75388 9.65859 5.32732 8.81718 4.53513 8.56406C4.29841 8.48906 3.97029 8.47031 3.74998 8.51953ZM4.37576 9.50624C4.49763 9.57656 4.60544 9.73124 4.63826 9.88828C4.69451 10.1555 4.5281 10.4437 4.25857 10.5445C4.15544 10.5844 3.93748 10.575 3.83201 10.5258C3.71248 10.4719 3.54841 10.2867 3.5156 10.1742C3.36794 9.64453 3.90466 9.22968 4.37576 9.50624Z" fill="white"/>
<path d="M9.1992 8.51951C8.65076 8.64138 8.24061 9.00935 8.06951 9.52497C7.98279 9.78982 7.97811 10.1718 8.05779 10.4297C8.30154 11.2172 9.1242 11.6672 9.91404 11.4445C10.3008 11.3367 10.6758 11.0203 10.8469 10.664C10.8984 10.5539 10.9547 10.4062 10.9711 10.3359C11.0133 10.1554 11.0086 9.79451 10.9594 9.60935C10.7554 8.84529 9.95623 8.35076 9.1992 8.51951ZM9.77107 9.4781C9.95857 9.57654 10.0781 9.77576 10.0781 9.99607C10.0781 10.1672 10.0242 10.2914 9.89998 10.4109C9.78045 10.5258 9.66561 10.5703 9.4992 10.5703C9.03279 10.5679 8.77029 10.0711 9.02342 9.67263C9.17342 9.43591 9.51795 9.34685 9.77107 9.4781Z" fill="white"/>
</g>
<defs>
<clipPath id="clip0_3_3634">
<rect width="12" height="12" fill="white"/>
</clipPath>
</defs>
</svg>
