<svg width="64" height="34" viewBox="0 0 64 34" fill="none" xmlns="http://www.w3.org/2000/svg">
<path d="M6.10352e-05 16.7926V33.5728H16.7802H33.5728L27.9877 27.9877L22.4026 22.4026L16.8175 22.3778L11.2324 22.3405L11.1951 16.7554L11.1703 11.1703L5.58518 5.58516L6.10352e-05 3.43323e-05V16.7926Z" fill="#1A9EB7"/>
<path d="M16.4963 19.4977C15.965 19.4977 15.5192 19.3355 15.1589 19.0113C14.7987 18.6781 14.6096 18.2503 14.5916 17.728V13.3104H16.4828V17.0255C16.5009 17.2867 16.5684 17.4983 16.6855 17.6604C16.8026 17.8135 17.0007 17.8901 17.2799 17.8901C17.5591 17.8901 17.7977 17.7955 17.9959 17.6064C18.203 17.4172 18.3606 17.1606 18.4687 16.8363C18.5858 16.5031 18.6443 16.1294 18.6443 15.7151V13.3104H20.5356V19.214H18.8199L18.6713 18.1332L18.6983 18.2548C18.5633 18.498 18.3921 18.7141 18.185 18.9033C17.9779 19.0924 17.7302 19.2365 17.442 19.3355C17.1628 19.4436 16.8476 19.4977 16.4963 19.4977Z" fill="#FF8600"/>
<path d="M25.1555 15.1882L26.2768 13.3104H28.1546L25.8175 16.5527L25.1555 15.1882ZM28.4788 19.214H26.1957L21.6431 13.3104H23.9667L28.4788 19.214ZM24.9124 17.3227L23.5885 19.214H21.7107L24.0478 16.0528L24.9124 17.3227Z" fill="#FF8600"/>
<path d="M32.3641 19.3761C31.6436 19.3761 31.0312 19.241 30.5268 18.9708C30.0315 18.7006 29.6532 18.3269 29.392 17.8495C29.1309 17.3722 29.0003 16.8228 29.0003 16.2014C29.0003 15.607 29.1534 15.0711 29.4596 14.5938C29.7658 14.1165 30.1756 13.7382 30.6889 13.459C31.2023 13.1708 31.7742 13.0268 32.4046 13.0268C33.2512 13.0268 33.9446 13.2744 34.485 13.7698C35.0344 14.2561 35.3901 14.9631 35.5522 15.8907L30.9591 17.3497L30.5403 16.323L33.8636 15.2017L33.4718 15.3774C33.3998 15.1432 33.2692 14.9406 33.0801 14.7694C32.8999 14.5893 32.6252 14.4993 32.256 14.4993C31.9768 14.4993 31.7291 14.5668 31.513 14.7019C31.3058 14.828 31.1437 15.0126 31.0267 15.2558C30.9186 15.4899 30.8645 15.7691 30.8645 16.0933C30.8645 16.4626 30.9321 16.7733 31.0672 17.0255C31.2023 17.2686 31.3869 17.4533 31.6211 17.5794C31.8552 17.7054 32.1164 17.7685 32.4046 17.7685C32.6117 17.7685 32.8099 17.7325 32.999 17.6604C33.1971 17.5884 33.3908 17.4938 33.5799 17.3767L34.4175 18.7817C34.1022 18.9618 33.76 19.1059 33.3908 19.214C33.0305 19.322 32.6883 19.3761 32.3641 19.3761Z" fill="#FF8600"/>
<path d="M37.2373 9.27119H39.1961V17.3227H43.8703V19.214H37.2373V9.27119Z" fill="#FF8600"/>
<path d="M45.1216 16.1879C45.1216 15.5845 45.2612 15.0441 45.5404 14.5668C45.8286 14.0895 46.2294 13.7157 46.7427 13.4455C47.2561 13.1663 47.846 13.0268 48.5124 13.0268C49.1879 13.0268 49.7733 13.1663 50.2686 13.4455C50.764 13.7157 51.1422 14.0895 51.4034 14.5668C51.6736 15.0441 51.8087 15.5845 51.8087 16.1879C51.8087 16.7913 51.6736 17.3362 51.4034 17.8225C51.1422 18.2998 50.764 18.6781 50.2686 18.9573C49.7733 19.2365 49.1789 19.3761 48.4854 19.3761C47.837 19.3761 47.2561 19.25 46.7427 18.9978C46.2384 18.7456 45.8421 18.3809 45.5539 17.9036C45.2657 17.4262 45.1216 16.8544 45.1216 16.1879ZM47.0264 16.2014C47.0264 16.5076 47.0894 16.7868 47.2155 17.039C47.3416 17.2821 47.5127 17.4758 47.7289 17.6199C47.945 17.764 48.1882 17.836 48.4584 17.836C48.7556 17.836 49.0123 17.764 49.2284 17.6199C49.4445 17.4758 49.6112 17.2821 49.7282 17.039C49.8453 16.7868 49.9039 16.5076 49.9039 16.2014C49.9039 15.8862 49.8453 15.607 49.7282 15.3638C49.6112 15.1207 49.4445 14.927 49.2284 14.7829C49.0123 14.6388 48.7556 14.5668 48.4584 14.5668C48.1882 14.5668 47.945 14.6388 47.7289 14.7829C47.5127 14.927 47.3416 15.1207 47.2155 15.3638C47.0894 15.607 47.0264 15.8862 47.0264 16.2014Z" fill="#FF8600"/>
<path d="M53.866 19.214V14.9586H52.8663V13.2834H53.866V11.23C53.866 10.4555 54.0866 9.82507 54.5279 9.33874C54.9782 8.8434 55.6267 8.59573 56.4732 8.59573C56.7254 8.59573 57.0046 8.63626 57.3108 8.71732C57.626 8.78937 57.9007 8.91095 58.1349 9.08206L57.3378 10.4465C57.2478 10.3294 57.1397 10.2529 57.0136 10.2168C56.8965 10.1718 56.784 10.1493 56.6759 10.1493C56.4057 10.1493 56.185 10.2394 56.0139 10.4195C55.8428 10.5996 55.7573 10.8878 55.7573 11.2841V13.2834H57.5405V14.9586H55.7573V19.214H53.866Z" fill="#FF8600"/>
<path d="M59.7231 10.7167H61.6144V13.2834H63.0464V14.7559H61.6144V19.214H59.7231V14.7559H58.8045V13.2834H59.7231V10.7167Z" fill="#FF8600"/>
</svg>
