<svg width="119" height="77" viewBox="0 0 119 77" fill="none" xmlns="http://www.w3.org/2000/svg">
<g filter="url(#filter0_d_2_2820)">
<rect x="10" y="5" width="98.33" height="57" rx="15" fill="white"/>
<rect x="10.5" y="5.5" width="97.33" height="56" rx="14.5" stroke="#F4F4F4"/>
</g>
<path d="M56.1562 32.68C55.3973 32.6393 54.6832 32.3122 54.1613 31.766C53.5369 31.172 52.9797 30.5126 52.4995 29.7995C51.7495 28.7375 51.1566 27.5751 50.7388 26.3475C50.266 25.0267 50.0173 23.6377 50.0027 22.2367C49.9659 20.8621 50.3102 19.5036 50.9983 18.3086C51.5022 17.4472 52.221 16.7278 53.086 16.2192C53.9415 15.7127 54.9178 15.4401 55.9148 15.4293C56.6664 15.4732 57.405 15.6431 58.0991 15.9316C58.653 16.1727 59.2347 16.3421 59.8321 16.4352C60.491 16.2987 61.1349 16.0989 61.7545 15.8385C62.4879 15.5554 63.2643 15.3969 64.0511 15.3696C64.1561 15.3696 64.2599 15.3696 64.36 15.3815C66.0858 15.4305 67.6908 16.2681 68.7045 17.6487C67.9134 18.0671 67.2551 18.6942 66.8028 19.4603C66.3505 20.2265 66.1219 21.1016 66.1425 21.9885C66.1346 22.6667 66.2722 23.3388 66.5461 23.9606C66.8201 24.5823 67.2242 25.1396 67.7318 25.5957C68.194 26.031 68.7321 26.3798 69.32 26.6255C69.1993 26.9834 69.0605 27.3295 68.9133 27.6779C68.579 28.4479 68.1666 29.1823 67.6824 29.8699C67.2245 30.5587 66.6915 31.1958 66.093 31.7696C65.5471 32.3052 64.8194 32.6212 64.0511 32.6561C63.3998 32.6276 62.7601 32.4765 62.1661 32.2111C61.5255 31.9351 60.8371 31.784 60.1386 31.766C59.4204 31.78 58.7117 31.9303 58.0508 32.2087C57.4801 32.4633 56.8703 32.6218 56.2467 32.6776L56.1562 32.68ZM59.9576 15.3696C59.8671 15.3696 59.7766 15.3696 59.6861 15.3589C59.667 15.2168 59.657 15.0738 59.6559 14.9305C59.6954 13.7386 60.1665 12.6004 60.9834 11.723C61.4403 11.2188 61.9941 10.8096 62.6126 10.5191C63.1889 10.2257 63.8187 10.0492 64.465 10C64.4831 10.1563 64.4831 10.3091 64.4831 10.4546C64.4662 11.6278 64.0203 12.7552 63.228 13.6287C62.8444 14.1372 62.3529 14.5566 61.7879 14.8574C61.2229 15.1582 60.5982 15.333 59.9576 15.3696Z" fill="black"/>
<path d="M48.0184 50.14H44.3704L43.6984 52H42.5464L45.5704 43.684H46.8304L49.8424 52H48.6904L48.0184 50.14ZM47.7064 49.252L46.1944 45.028L44.6824 49.252H47.7064ZM52.2523 46.636C52.4683 46.26 52.7883 45.948 53.2123 45.7C53.6443 45.444 54.1443 45.316 54.7123 45.316C55.2963 45.316 55.8243 45.456 56.2963 45.736C56.7763 46.016 57.1523 46.412 57.4243 46.924C57.6963 47.428 57.8323 48.016 57.8323 48.688C57.8323 49.352 57.6963 49.944 57.4243 50.464C57.1523 50.984 56.7763 51.388 56.2963 51.676C55.8243 51.964 55.2963 52.108 54.7123 52.108C54.1523 52.108 53.6563 51.984 53.2243 51.736C52.8003 51.48 52.4763 51.164 52.2523 50.788V55.12H51.1603V45.424H52.2523V46.636ZM56.7163 48.688C56.7163 48.192 56.6163 47.76 56.4163 47.392C56.2163 47.024 55.9443 46.744 55.6003 46.552C55.2643 46.36 54.8923 46.264 54.4843 46.264C54.0843 46.264 53.7123 46.364 53.3683 46.564C53.0323 46.756 52.7603 47.04 52.5523 47.416C52.3523 47.784 52.2523 48.212 52.2523 48.7C52.2523 49.196 52.3523 49.632 52.5523 50.008C52.7603 50.376 53.0323 50.66 53.3683 50.86C53.7123 51.052 54.0843 51.148 54.4843 51.148C54.8923 51.148 55.2643 51.052 55.6003 50.86C55.9443 50.66 56.2163 50.376 56.4163 50.008C56.6163 49.632 56.7163 49.192 56.7163 48.688ZM60.3617 46.636C60.5777 46.26 60.8977 45.948 61.3217 45.7C61.7537 45.444 62.2537 45.316 62.8217 45.316C63.4057 45.316 63.9337 45.456 64.4057 45.736C64.8857 46.016 65.2617 46.412 65.5337 46.924C65.8057 47.428 65.9417 48.016 65.9417 48.688C65.9417 49.352 65.8057 49.944 65.5337 50.464C65.2617 50.984 64.8857 51.388 64.4057 51.676C63.9337 51.964 63.4057 52.108 62.8217 52.108C62.2617 52.108 61.7657 51.984 61.3337 51.736C60.9097 51.48 60.5857 51.164 60.3617 50.788V55.12H59.2697V45.424H60.3617V46.636ZM64.8257 48.688C64.8257 48.192 64.7257 47.76 64.5257 47.392C64.3257 47.024 64.0537 46.744 63.7097 46.552C63.3737 46.36 63.0017 46.264 62.5937 46.264C62.1937 46.264 61.8217 46.364 61.4777 46.564C61.1417 46.756 60.8697 47.04 60.6617 47.416C60.4617 47.784 60.3617 48.212 60.3617 48.7C60.3617 49.196 60.4617 49.632 60.6617 50.008C60.8697 50.376 61.1417 50.66 61.4777 50.86C61.8217 51.052 62.1937 51.148 62.5937 51.148C63.0017 51.148 63.3737 51.052 63.7097 50.86C64.0537 50.66 64.3257 50.376 64.5257 50.008C64.7257 49.632 64.8257 49.192 64.8257 48.688ZM68.4711 43.12V52H67.3791V43.12H68.4711ZM76.3322 48.46C76.3322 48.668 76.3202 48.888 76.2962 49.12H71.0402C71.0802 49.768 71.3002 50.276 71.7002 50.644C72.1082 51.004 72.6002 51.184 73.1762 51.184C73.6482 51.184 74.0402 51.076 74.3522 50.86C74.6722 50.636 74.8962 50.34 75.0242 49.972H76.2002C76.0242 50.604 75.6722 51.12 75.1442 51.52C74.6162 51.912 73.9602 52.108 73.1762 52.108C72.5522 52.108 71.9922 51.968 71.4962 51.688C71.0082 51.408 70.6242 51.012 70.3442 50.5C70.0642 49.98 69.9242 49.38 69.9242 48.7C69.9242 48.02 70.0602 47.424 70.3322 46.912C70.6042 46.4 70.9842 46.008 71.4722 45.736C71.9682 45.456 72.5362 45.316 73.1762 45.316C73.8002 45.316 74.3522 45.452 74.8322 45.724C75.3122 45.996 75.6802 46.372 75.9362 46.852C76.2002 47.324 76.3322 47.86 76.3322 48.46ZM75.2042 48.232C75.2042 47.816 75.1122 47.46 74.9282 47.164C74.7442 46.86 74.4922 46.632 74.1722 46.48C73.8602 46.32 73.5122 46.24 73.1282 46.24C72.5762 46.24 72.1042 46.416 71.7122 46.768C71.3282 47.12 71.1082 47.608 71.0522 48.232H75.2042Z" fill="black"/>
<defs>
<filter id="filter0_d_2_2820" x="0" y="0" width="118.33" height="77" filterUnits="userSpaceOnUse" color-interpolation-filters="sRGB">
<feFlood flood-opacity="0" result="BackgroundImageFix"/>
<feColorMatrix in="SourceAlpha" type="matrix" values="0 0 0 0 0 0 0 0 0 0 0 0 0 0 0 0 0 0 127 0" result="hardAlpha"/>
<feOffset dy="5"/>
<feGaussianBlur stdDeviation="5"/>
<feColorMatrix type="matrix" values="0 0 0 0 0 0 0 0 0 0 0 0 0 0 0 0 0 0 0.05 0"/>
<feBlend mode="normal" in2="BackgroundImageFix" result="effect1_dropShadow_2_2820"/>
<feBlend mode="normal" in="SourceGraphic" in2="effect1_dropShadow_2_2820" result="shape"/>
</filter>
</defs>
</svg>
