<svg width="18" height="18" viewBox="0 0 18 18" fill="none" xmlns="http://www.w3.org/2000/svg">
<g clip-path="url(#clip0_3_3555)">
<path d="M0.815625 0.632812C0.646875 0.738281 0.5625 0.896484 0.5625 1.125C0.5625 1.35352 0.646875 1.51172 0.815625 1.61719C0.921094 1.68047 0.994922 1.6875 1.60664 1.6875H2.28164L2.30273 1.83516C2.31328 1.91953 2.53477 4.01836 2.79492 6.49688C3.05508 8.97891 3.28711 11.0777 3.3082 11.1551C3.375 11.4012 3.51562 11.6402 3.72305 11.8582C3.95156 12.1008 4.13789 12.2168 4.4332 12.3082C4.63711 12.3715 4.84102 12.375 9.3375 12.375C13.9957 12.375 14.0309 12.375 14.2488 12.3012C14.3684 12.2625 14.5406 12.1816 14.6355 12.1219C14.8816 11.9672 15.1664 11.6297 15.2719 11.3801C15.3316 11.2395 15.6199 9.9668 16.0699 7.85742C16.8504 4.19766 16.8258 4.37695 16.6254 3.97617C16.5129 3.74766 16.3617 3.59648 16.1262 3.47344L15.9785 3.39258L9.80156 3.38203C3.78281 3.375 3.62109 3.37148 3.62109 3.3082C3.62109 3.27305 3.56484 2.72461 3.49805 2.0918C3.36445 0.84375 3.35391 0.791016 3.12891 0.64336C3.01641 0.5625 2.99531 0.5625 1.97227 0.5625C0.994922 0.5625 0.924609 0.566016 0.815625 0.632812ZM14.9133 7.68867C14.175 11.134 14.2066 11.0285 13.9465 11.1727C13.841 11.2289 13.5527 11.2324 9.33398 11.2324C5.21367 11.2324 4.82344 11.2289 4.72852 11.1727C4.5668 11.0848 4.47188 10.9652 4.42969 10.793C4.39805 10.6664 3.76172 4.70391 3.76172 4.54219C3.76172 4.51055 4.96758 4.5 9.67852 4.5H15.5953L14.9133 7.68867Z" fill="#1C1C1C"/>
<path d="M5.0906 13.5668C4.58083 13.732 4.1449 14.1785 3.99373 14.6918C3.9199 14.9414 3.9199 15.4336 3.99373 15.6832C4.1449 16.2035 4.58435 16.6465 5.10115 16.8082C5.38943 16.8996 5.86052 16.8996 6.1488 16.8082C6.6656 16.6465 7.10505 16.2035 7.25623 15.6832C7.33005 15.4336 7.33005 14.9414 7.25623 14.6918C7.10505 14.1715 6.6656 13.7285 6.1488 13.5668C5.86404 13.4789 5.36833 13.4789 5.0906 13.5668ZM5.89919 14.7305C6.35623 15.0082 6.15935 15.7149 5.62498 15.7149C5.32615 15.7149 5.09763 15.4863 5.09763 15.1875C5.09763 14.8887 5.32615 14.6602 5.62498 14.6602C5.7199 14.6602 5.82888 14.6883 5.89919 14.7305Z" fill="#1C1C1C"/>
<path d="M11.8406 13.5668C11.5805 13.6512 11.3344 13.8094 11.1375 14.0203C10.8176 14.3613 10.6875 14.7023 10.6875 15.1875C10.6875 15.6727 10.8176 16.0137 11.1375 16.3547C11.4715 16.7098 11.8617 16.875 12.375 16.875C12.8883 16.875 13.2785 16.7098 13.6125 16.3547C13.9324 16.0137 14.0625 15.6727 14.0625 15.1875C14.0625 14.7023 13.9324 14.3613 13.6125 14.0203C13.4121 13.8059 13.166 13.6512 12.8988 13.5668C12.6141 13.4789 12.1184 13.4789 11.8406 13.5668ZM12.6492 14.7305C13.1063 15.0082 12.9094 15.7148 12.375 15.7148C12.0762 15.7148 11.8477 15.4863 11.8477 15.1875C11.8477 14.8887 12.0762 14.6602 12.375 14.6602C12.4699 14.6602 12.5789 14.6883 12.6492 14.7305Z" fill="#1C1C1C"/>
</g>
<defs>
<clipPath id="clip0_3_3555">
<rect width="18" height="18" fill="white"/>
</clipPath>
</defs>
</svg>
