<svg width="18" height="18" viewBox="0 0 18 18" fill="none" xmlns="http://www.w3.org/2000/svg">
<g clip-path="url(#clip0_3_3538)">
<g clip-path="url(#clip1_3_3538)">
<path d="M1.39221 0.161719C0.784009 0.309375 0.305884 0.798047 0.158228 1.41328C0.0808838 1.74375 0.0808838 6.13477 0.158228 6.46523C0.312915 7.11563 0.857837 7.62539 1.51174 7.73086C1.65588 7.75547 2.58401 7.76953 3.99026 7.76953C6.43362 7.76953 6.52151 7.7625 6.89417 7.57266C7.30198 7.36875 7.60081 7.01719 7.7344 6.58477C7.8012 6.36328 7.80471 6.26133 7.80471 3.9375C7.80471 1.62422 7.8012 1.5082 7.7344 1.29375C7.55159 0.696094 7.0594 0.256641 6.4512 0.144141C6.31409 0.119532 5.44573 0.105469 3.92346 0.108984C2.0426 0.1125 1.56096 0.119532 1.39221 0.161719ZM6.37034 1.54336L6.48635 1.64531L6.4969 3.87422C6.50393 5.49844 6.49338 6.12422 6.46526 6.19805C6.44416 6.25078 6.3844 6.32812 6.33518 6.36328C6.25081 6.43008 6.18049 6.43359 3.98323 6.43359C2.38362 6.43359 1.69456 6.42305 1.64182 6.39492C1.59963 6.37383 1.53635 6.32109 1.50471 6.27891C1.44846 6.21211 1.44143 6.03281 1.44143 3.92695V1.64531L1.54338 1.54336L1.64534 1.44141H3.95159H6.25784L6.37034 1.54336Z" fill="#1C1C1C"/>
<path d="M13.5879 0.144164C11.9602 0.365649 10.6664 1.55745 10.3325 3.14651C10.2411 3.5719 10.234 4.27151 10.3184 4.67581C10.6594 6.34221 11.9707 7.53752 13.6723 7.7344C14.3262 7.81174 15.0786 7.68166 15.7043 7.38284C17.1 6.7219 17.9754 5.24534 17.884 3.70901C17.7786 2.00745 16.5586 0.569555 14.9098 0.210961C14.5372 0.126586 13.9219 0.0984612 13.5879 0.144164ZM14.8114 1.55745C15.3704 1.74026 15.9258 2.17971 16.2176 2.67541C16.52 3.19221 16.6395 3.92698 16.5059 4.47541C16.295 5.35081 15.6657 6.03635 14.8184 6.3176C14.5758 6.39846 14.4774 6.41252 14.0801 6.41252C13.7321 6.41604 13.5739 6.40198 13.4157 6.35276C12.8954 6.19104 12.4207 5.87815 12.1184 5.49143C11.9004 5.21018 11.6895 4.76018 11.6192 4.42268C11.3555 3.09729 12.2098 1.79651 13.5528 1.49065C13.8832 1.41682 14.4739 1.44495 14.8114 1.55745Z" fill="#1C1C1C"/>
<path d="M1.45552 10.2832C0.822707 10.4203 0.302395 10.9336 0.175832 11.5418C0.151223 11.6684 0.140676 12.5051 0.147707 14.168L0.158254 16.6113L0.239113 16.8152C0.41841 17.2582 0.798098 17.6273 1.2481 17.7961C1.45904 17.877 1.46607 17.877 3.87427 17.8875C5.96255 17.8945 6.32115 17.891 6.52505 17.8418C7.15786 17.6941 7.6395 17.216 7.78716 16.5867C7.8645 16.2563 7.8645 11.8652 7.78716 11.5348C7.67466 11.0707 7.33364 10.6313 6.9188 10.4203C6.55669 10.2375 6.46177 10.2305 3.97271 10.234C2.19732 10.234 1.62075 10.2481 1.45552 10.2832ZM6.32818 11.6191C6.38443 11.6473 6.44771 11.7035 6.4688 11.7387C6.48989 11.7844 6.50396 12.5895 6.50396 14.0801V16.3547L6.402 16.4566L6.30005 16.5586H4.00083C1.452 16.5586 1.59263 16.5727 1.49068 16.3266C1.41685 16.1543 1.41685 11.9707 1.49068 11.7984C1.59263 11.5523 1.45552 11.5664 3.96568 11.5664C5.91333 11.5664 6.24029 11.5734 6.32818 11.6191Z" fill="#1C1C1C"/>
<path d="M11.5102 10.2832C10.9125 10.4133 10.4449 10.8387 10.2656 11.4152C10.1988 11.6367 10.1953 11.7387 10.1953 14.0625C10.1953 16.3758 10.1988 16.4918 10.2656 16.7063C10.4484 17.3004 10.9441 17.7469 11.5453 17.8559C11.6824 17.8805 12.5402 17.8945 14.059 17.8945C15.9926 17.8945 16.4004 17.884 16.5902 17.8418C17.2125 17.6941 17.6941 17.2125 17.8418 16.5867C17.9191 16.2563 17.9191 11.8652 17.8418 11.5348C17.7293 11.0707 17.3883 10.6313 16.9734 10.4203C16.6113 10.2375 16.5164 10.2305 14.0273 10.234C12.252 10.234 11.6754 10.248 11.5102 10.2832ZM16.3582 11.6051C16.4004 11.6262 16.4637 11.6789 16.4953 11.7211C16.5516 11.7879 16.5586 11.9672 16.5586 14.073V16.3547L16.4566 16.4566L16.3547 16.5586H14.0484H11.7422L11.6297 16.4566L11.5137 16.3547L11.5031 14.1258C11.4961 12.5016 11.5066 11.8758 11.5348 11.802C11.5559 11.7492 11.6156 11.6719 11.6648 11.6367C11.7492 11.5699 11.8195 11.5664 14.0168 11.5664C15.6164 11.5664 16.3055 11.577 16.3582 11.6051Z" fill="#1C1C1C"/>
</g>
</g>
<defs>
<clipPath id="clip0_3_3538">
<rect width="18" height="18" fill="white"/>
</clipPath>
<clipPath id="clip1_3_3538">
<rect width="18" height="18" fill="white"/>
</clipPath>
</defs>
</svg>
