<svg width="16" height="16" viewBox="0 0 16 16" fill="none" xmlns="http://www.w3.org/2000/svg">
<g clip-path="url(#clip0_2_2787)">
<path d="M1.39062 0.0968761C0.674992 0.181251 0.121867 0.768751 0.071867 1.5C0.049992 1.79375 0.099992 2.03438 0.234367 2.30625C0.331242 2.49688 0.581242 2.75625 3.07812 5.25L5.81249 7.98437L3.04999 10.75C0.156242 13.65 0.162492 13.6437 0.049992 14.0281C-0.018758 14.2656 -0.015633 14.6937 0.059367 14.9344C0.206242 15.4062 0.549992 15.7375 1.02187 15.8594C1.24687 15.9187 1.77499 15.9187 1.98749 15.8625C2.38749 15.7562 2.34687 15.7937 5.24999 12.8906L7.98437 10.1562L10.7344 12.9031C13.6375 15.8031 13.5687 15.7406 13.9719 15.8562C14.2125 15.9281 14.7219 15.9281 14.9594 15.8594C15.5937 15.6781 16 15.125 16 14.4406C16 14.1031 15.9219 13.8281 15.7625 13.5875C15.7 13.4969 14.4187 12.1969 12.9125 10.6969L10.1719 7.975L12.9094 5.22812C15.5 2.63125 15.65 2.475 15.7344 2.28125C15.9937 1.6875 15.8687 0.996876 15.425 0.562501C15.0812 0.225001 14.775 0.109376 14.2719 0.131251C13.8906 0.150001 13.6812 0.221876 13.4156 0.421876C13.3156 0.496876 12.0531 1.74063 10.6125 3.18437L7.98749 5.80937L5.25937 3.09375C3.32187 1.16563 2.48437 0.353126 2.36562 0.287501C2.07812 0.121876 1.73749 0.0562506 1.39062 0.0968761Z" fill="black"/>
</g>
<defs>
<clipPath id="clip0_2_2787">
<rect width="16" height="16" fill="white"/>
</clipPath>
</defs>
</svg>
