<svg width="119" height="77" viewBox="0 0 119 77" fill="none" xmlns="http://www.w3.org/2000/svg">
<g filter="url(#filter0_d_2_2739)">
<rect x="10" y="5" width="98.33" height="57" rx="15" fill="white"/>
<rect x="10.5" y="5.5" width="97.33" height="56" rx="14.5" stroke="#F4F4F4"/>
</g>
<g clip-path="url(#clip0_2_2739)">
<path d="M72.3635 21C72.3635 14.3731 66.9904 9 60.3635 9C53.7366 9 48.3635 14.3731 48.3635 21C48.3635 26.989 52.7511 31.9537 58.4887 32.8549V24.4696H55.441V21H58.4887V18.3556C58.4887 15.3485 60.2808 13.6863 63.0214 13.6863C64.3343 13.6863 65.7079 13.9208 65.7079 13.9208V16.874H64.1942C62.7041 16.874 62.2384 17.7988 62.2384 18.7488V21H65.5662L65.0346 24.4696H62.2384V32.8549C67.976 31.9554 72.3635 26.9907 72.3635 21Z" fill="#1977F3"/>
<path d="M65.0346 24.4696L65.5662 21H62.2384V18.7488C62.2384 17.8005 62.7025 16.874 64.1942 16.874H65.708V13.9208C65.708 13.9208 64.3343 13.6863 63.0214 13.6863C60.2809 13.6863 58.4887 15.3468 58.4887 18.3556V21H55.441V24.4696H58.4887V32.8549C59.0996 32.9511 59.7257 33 60.3636 33C61.0014 33 61.6275 32.9494 62.2384 32.8549V24.4696H65.0346Z" fill="#FEFEFE"/>
</g>
<path d="M35.8903 43.636V44.524H32.2543V47.344H35.2063V48.232H32.2543V52H31.1623V43.636H35.8903ZM36.8012 48.688C36.8012 48.016 36.9372 47.428 37.2092 46.924C37.4812 46.412 37.8532 46.016 38.3252 45.736C38.8052 45.456 39.3372 45.316 39.9212 45.316C40.4972 45.316 40.9972 45.44 41.4212 45.688C41.8452 45.936 42.1612 46.248 42.3692 46.624V45.424H43.4732V52H42.3692V50.776C42.1532 51.16 41.8292 51.48 41.3972 51.736C40.9732 51.984 40.4772 52.108 39.9092 52.108C39.3252 52.108 38.7972 51.964 38.3252 51.676C37.8532 51.388 37.4812 50.984 37.2092 50.464C36.9372 49.944 36.8012 49.352 36.8012 48.688ZM42.3692 48.7C42.3692 48.204 42.2692 47.772 42.0692 47.404C41.8692 47.036 41.5972 46.756 41.2532 46.564C40.9172 46.364 40.5452 46.264 40.1372 46.264C39.7292 46.264 39.3572 46.36 39.0212 46.552C38.6852 46.744 38.4172 47.024 38.2172 47.392C38.0172 47.76 37.9172 48.192 37.9172 48.688C37.9172 49.192 38.0172 49.632 38.2172 50.008C38.4172 50.376 38.6852 50.66 39.0212 50.86C39.3572 51.052 39.7292 51.148 40.1372 51.148C40.5452 51.148 40.9172 51.052 41.2532 50.86C41.5972 50.66 41.8692 50.376 42.0692 50.008C42.2692 49.632 42.3692 49.196 42.3692 48.7ZM44.9105 48.7C44.9105 48.02 45.0465 47.428 45.3185 46.924C45.5905 46.412 45.9665 46.016 46.4465 45.736C46.9345 45.456 47.4905 45.316 48.1145 45.316C48.9225 45.316 49.5865 45.512 50.1065 45.904C50.6345 46.296 50.9825 46.84 51.1505 47.536H49.9745C49.8625 47.136 49.6425 46.82 49.3145 46.588C48.9945 46.356 48.5945 46.24 48.1145 46.24C47.4905 46.24 46.9865 46.456 46.6025 46.888C46.2185 47.312 46.0265 47.916 46.0265 48.7C46.0265 49.492 46.2185 50.104 46.6025 50.536C46.9865 50.968 47.4905 51.184 48.1145 51.184C48.5945 51.184 48.9945 51.072 49.3145 50.848C49.6345 50.624 49.8545 50.304 49.9745 49.888H51.1505C50.9745 50.56 50.6225 51.1 50.0945 51.508C49.5665 51.908 48.9065 52.108 48.1145 52.108C47.4905 52.108 46.9345 51.968 46.4465 51.688C45.9665 51.408 45.5905 51.012 45.3185 50.5C45.0465 49.988 44.9105 49.388 44.9105 48.7ZM58.6076 48.46C58.6076 48.668 58.5956 48.888 58.5716 49.12H53.3156C53.3556 49.768 53.5756 50.276 53.9756 50.644C54.3836 51.004 54.8756 51.184 55.4516 51.184C55.9236 51.184 56.3156 51.076 56.6276 50.86C56.9476 50.636 57.1716 50.34 57.2996 49.972H58.4756C58.2996 50.604 57.9476 51.12 57.4196 51.52C56.8916 51.912 56.2356 52.108 55.4516 52.108C54.8276 52.108 54.2676 51.968 53.7716 51.688C53.2836 51.408 52.8996 51.012 52.6196 50.5C52.3396 49.98 52.1996 49.38 52.1996 48.7C52.1996 48.02 52.3356 47.424 52.6076 46.912C52.8796 46.4 53.2596 46.008 53.7476 45.736C54.2436 45.456 54.8116 45.316 55.4516 45.316C56.0756 45.316 56.6276 45.452 57.1076 45.724C57.5876 45.996 57.9556 46.372 58.2116 46.852C58.4756 47.324 58.6076 47.86 58.6076 48.46ZM57.4796 48.232C57.4796 47.816 57.3876 47.46 57.2036 47.164C57.0196 46.86 56.7676 46.632 56.4476 46.48C56.1356 46.32 55.7876 46.24 55.4036 46.24C54.8516 46.24 54.3796 46.416 53.9876 46.768C53.6036 47.12 53.3836 47.608 53.3276 48.232H57.4796ZM61.141 46.648C61.365 46.256 61.693 45.936 62.125 45.688C62.557 45.44 63.049 45.316 63.601 45.316C64.193 45.316 64.725 45.456 65.197 45.736C65.669 46.016 66.041 46.412 66.313 46.924C66.585 47.428 66.721 48.016 66.721 48.688C66.721 49.352 66.585 49.944 66.313 50.464C66.041 50.984 65.665 51.388 65.185 51.676C64.713 51.964 64.185 52.108 63.601 52.108C63.033 52.108 62.533 51.984 62.101 51.736C61.677 51.488 61.357 51.172 61.141 50.788V52H60.049V43.12H61.141V46.648ZM65.605 48.688C65.605 48.192 65.505 47.76 65.305 47.392C65.105 47.024 64.833 46.744 64.489 46.552C64.153 46.36 63.781 46.264 63.373 46.264C62.973 46.264 62.601 46.364 62.257 46.564C61.921 46.756 61.649 47.04 61.441 47.416C61.241 47.784 61.141 48.212 61.141 48.7C61.141 49.196 61.241 49.632 61.441 50.008C61.649 50.376 61.921 50.66 62.257 50.86C62.601 51.052 62.973 51.148 63.373 51.148C63.781 51.148 64.153 51.052 64.489 50.86C64.833 50.66 65.105 50.376 65.305 50.008C65.505 49.632 65.605 49.192 65.605 48.688ZM71.0264 52.108C70.4104 52.108 69.8504 51.968 69.3464 51.688C68.8504 51.408 68.4584 51.012 68.1704 50.5C67.8904 49.98 67.7504 49.38 67.7504 48.7C67.7504 48.028 67.8944 47.436 68.1824 46.924C68.4784 46.404 68.8784 46.008 69.3824 45.736C69.8864 45.456 70.4504 45.316 71.0744 45.316C71.6984 45.316 72.2624 45.456 72.7664 45.736C73.2704 46.008 73.6664 46.4 73.9544 46.912C74.2504 47.424 74.3984 48.02 74.3984 48.7C74.3984 49.38 74.2464 49.98 73.9424 50.5C73.6464 51.012 73.2424 51.408 72.7304 51.688C72.2184 51.968 71.6504 52.108 71.0264 52.108ZM71.0264 51.148C71.4184 51.148 71.7864 51.056 72.1304 50.872C72.4744 50.688 72.7504 50.412 72.9584 50.044C73.1744 49.676 73.2824 49.228 73.2824 48.7C73.2824 48.172 73.1784 47.724 72.9704 47.356C72.7624 46.988 72.4904 46.716 72.1544 46.54C71.8184 46.356 71.4544 46.264 71.0624 46.264C70.6624 46.264 70.2944 46.356 69.9584 46.54C69.6304 46.716 69.3664 46.988 69.1664 47.356C68.9664 47.724 68.8664 48.172 68.8664 48.7C68.8664 49.236 68.9624 49.688 69.1544 50.056C69.3544 50.424 69.6184 50.7 69.9464 50.884C70.2744 51.06 70.6344 51.148 71.0264 51.148ZM78.7022 52.108C78.0862 52.108 77.5262 51.968 77.0222 51.688C76.5262 51.408 76.1342 51.012 75.8462 50.5C75.5662 49.98 75.4262 49.38 75.4262 48.7C75.4262 48.028 75.5702 47.436 75.8582 46.924C76.1542 46.404 76.5542 46.008 77.0582 45.736C77.5622 45.456 78.1262 45.316 78.7502 45.316C79.3742 45.316 79.9382 45.456 80.4422 45.736C80.9462 46.008 81.3422 46.4 81.6302 46.912C81.9262 47.424 82.0742 48.02 82.0742 48.7C82.0742 49.38 81.9222 49.98 81.6182 50.5C81.3222 51.012 80.9182 51.408 80.4062 51.688C79.8942 51.968 79.3262 52.108 78.7022 52.108ZM78.7022 51.148C79.0942 51.148 79.4622 51.056 79.8062 50.872C80.1502 50.688 80.4262 50.412 80.6342 50.044C80.8502 49.676 80.9582 49.228 80.9582 48.7C80.9582 48.172 80.8542 47.724 80.6462 47.356C80.4382 46.988 80.1662 46.716 79.8302 46.54C79.4942 46.356 79.1302 46.264 78.7382 46.264C78.3382 46.264 77.9702 46.356 77.6342 46.54C77.3062 46.716 77.0422 46.988 76.8422 47.356C76.6422 47.724 76.5422 48.172 76.5422 48.7C76.5422 49.236 76.6382 49.688 76.8302 50.056C77.0302 50.424 77.2942 50.7 77.6222 50.884C77.9502 51.06 78.3102 51.148 78.7022 51.148ZM87.1819 52L84.6019 49.096V52H83.5099V43.12H84.6019V48.34L87.1339 45.424H88.6579L85.5619 48.7L88.6699 52H87.1819Z" fill="black"/>
<defs>
<filter id="filter0_d_2_2739" x="0" y="0" width="118.33" height="77" filterUnits="userSpaceOnUse" color-interpolation-filters="sRGB">
<feFlood flood-opacity="0" result="BackgroundImageFix"/>
<feColorMatrix in="SourceAlpha" type="matrix" values="0 0 0 0 0 0 0 0 0 0 0 0 0 0 0 0 0 0 127 0" result="hardAlpha"/>
<feOffset dy="5"/>
<feGaussianBlur stdDeviation="5"/>
<feColorMatrix type="matrix" values="0 0 0 0 0 0 0 0 0 0 0 0 0 0 0 0 0 0 0.05 0"/>
<feBlend mode="normal" in2="BackgroundImageFix" result="effect1_dropShadow_2_2739"/>
<feBlend mode="normal" in="SourceGraphic" in2="effect1_dropShadow_2_2739" result="shape"/>
</filter>
<clipPath id="clip0_2_2739">
<rect width="24" height="24" fill="white" transform="translate(48.3635 9)"/>
</clipPath>
</defs>
</svg>
