<svg width="23" height="23" viewBox="0 0 23 23" fill="none" xmlns="http://www.w3.org/2000/svg">
<g filter="url(#filter0_d_3_3607)">
<circle cx="11.5" cy="11.5" r="9.5" fill="white"/>
</g>
<path d="M16.2581 8.84437C16.1029 8.48345 15.8792 8.15639 15.5994 7.88149C15.3194 7.60577 14.9894 7.38666 14.6271 7.23608C14.2514 7.07931 13.8485 6.99907 13.4418 7.00001C12.8711 7.00001 12.3143 7.157 11.8305 7.45354C11.7147 7.52448 11.6048 7.60239 11.5006 7.68728C11.3964 7.60239 11.2864 7.52448 11.1707 7.45354C10.6868 7.157 10.13 7.00001 9.55938 7.00001C9.14845 7.00001 8.75026 7.07909 8.37406 7.23608C8.01059 7.38725 7.68301 7.60472 7.40172 7.88149C7.1216 8.15608 6.89782 8.48322 6.74308 8.84437C6.58219 9.21999 6.5 9.61886 6.5 10.0294C6.5 10.4166 6.57871 10.8201 6.73498 11.2306C6.86578 11.5737 7.0533 11.9296 7.29291 12.2889C7.67259 12.8575 8.19464 13.4506 8.84286 14.0518C9.91706 15.0485 10.9808 15.7369 11.026 15.7648L11.3003 15.9416C11.4219 16.0195 11.5781 16.0195 11.6997 15.9416L11.974 15.7648C12.0192 15.7357 13.0818 15.0485 14.1571 14.0518C14.8053 13.4506 15.3274 12.8575 15.7071 12.2889C15.9467 11.9296 16.1354 11.5737 16.265 11.2306C16.4213 10.8201 16.5 10.4166 16.5 10.0294C16.5011 9.61886 16.419 9.21999 16.2581 8.84437ZM11.5006 15.0217C11.5006 15.0217 7.37973 12.3691 7.37973 10.0294C7.37973 8.84437 8.35554 7.88381 9.55938 7.88381C10.4055 7.88381 11.1394 8.35828 11.5006 9.05137C11.8617 8.35828 12.5956 7.88381 13.4418 7.88381C14.6456 7.88381 15.6214 8.84437 15.6214 10.0294C15.6214 12.3691 11.5006 15.0217 11.5006 15.0217Z" fill="black"/>
<defs>
<filter id="filter0_d_3_3607" x="0" y="0" width="23" height="23" filterUnits="userSpaceOnUse" color-interpolation-filters="sRGB">
<feFlood flood-opacity="0" result="BackgroundImageFix"/>
<feColorMatrix in="SourceAlpha" type="matrix" values="0 0 0 0 0 0 0 0 0 0 0 0 0 0 0 0 0 0 127 0" result="hardAlpha"/>
<feOffset/>
<feGaussianBlur stdDeviation="1"/>
<feComposite in2="hardAlpha" operator="out"/>
<feColorMatrix type="matrix" values="0 0 0 0 0 0 0 0 0 0 0 0 0 0 0 0 0 0 0.1 0"/>
<feBlend mode="normal" in2="BackgroundImageFix" result="effect1_dropShadow_3_3607"/>
<feBlend mode="normal" in="SourceGraphic" in2="effect1_dropShadow_3_3607" result="shape"/>
</filter>
</defs>
</svg>
