<svg width="119" height="77" viewBox="0 0 119 77" fill="none" xmlns="http://www.w3.org/2000/svg">
<g filter="url(#filter0_d_2_2830)">
<rect x="10" y="5" width="98.33" height="57" rx="15" fill="white"/>
<rect x="10.5" y="5.5" width="97.33" height="56" rx="14.5" stroke="#F4F4F4"/>
</g>
<path d="M68.8055 19.0415H68V19L59 19V23L64.6515 23C63.827 25.3285 61.6115 27 59 27C55.6865 27 53 24.3135 53 21C53 17.6865 55.6865 15 59 15C60.5295 15 61.921 15.577 62.9805 16.5195L65.809 13.691C64.023 12.0265 61.634 11 59 11C53.4775 11 49 15.4775 49 21C49 26.5225 53.4775 31 59 31C64.5225 31 69 26.5225 69 21C69 20.3295 68.931 19.675 68.8055 19.0415Z" fill="#FFC107"/>
<path d="M50.153 16.3455L53.4385 18.755C54.3275 16.554 56.4805 15 59 15C60.5295 15 61.921 15.577 62.9805 16.5195L65.809 13.691C64.023 12.0265 61.634 11 59 11C55.159 11 51.828 13.1685 50.153 16.3455Z" fill="#FF3D00"/>
<path d="M59 31C61.583 31 63.93 30.0115 65.7045 28.404L62.6095 25.785C61.5718 26.5742 60.3037 27.001 59 27C56.399 27 54.1905 25.3415 53.3585 23.027L50.0975 25.5395C51.7525 28.778 55.1135 31 59 31Z" fill="#4CAF50"/>
<path d="M68.8055 19.0415H68V19L59 19V23H64.6515C64.2571 24.1082 63.5467 25.0766 62.608 25.7855L62.6095 25.7845L65.7045 28.4035C65.4855 28.6025 69 26 69 21C69 20.3295 68.931 19.675 68.8055 19.0415Z" fill="#1976D2"/>
<path d="M44.6623 46.06C44.4303 45.572 44.0943 45.196 43.6543 44.932C43.2143 44.66 42.7023 44.524 42.1183 44.524C41.5343 44.524 41.0063 44.66 40.5343 44.932C40.0703 45.196 39.7023 45.58 39.4303 46.084C39.1663 46.58 39.0343 47.156 39.0343 47.812C39.0343 48.468 39.1663 49.044 39.4303 49.54C39.7023 50.036 40.0703 50.42 40.5343 50.692C41.0063 50.956 41.5343 51.088 42.1183 51.088C42.9343 51.088 43.6063 50.844 44.1343 50.356C44.6623 49.868 44.9703 49.208 45.0583 48.376H41.7223V47.488H46.2223V48.328C46.1583 49.016 45.9423 49.648 45.5743 50.224C45.2063 50.792 44.7223 51.244 44.1223 51.58C43.5223 51.908 42.8543 52.072 42.1183 52.072C41.3423 52.072 40.6343 51.892 39.9943 51.532C39.3543 51.164 38.8463 50.656 38.4703 50.008C38.1023 49.36 37.9183 48.628 37.9183 47.812C37.9183 46.996 38.1023 46.264 38.4703 45.616C38.8463 44.96 39.3543 44.452 39.9943 44.092C40.6343 43.724 41.3423 43.54 42.1183 43.54C43.0063 43.54 43.7903 43.76 44.4703 44.2C45.1583 44.64 45.6583 45.26 45.9703 46.06H44.6623ZM50.5342 52.108C49.9182 52.108 49.3582 51.968 48.8542 51.688C48.3582 51.408 47.9662 51.012 47.6782 50.5C47.3982 49.98 47.2582 49.38 47.2582 48.7C47.2582 48.028 47.4022 47.436 47.6902 46.924C47.9862 46.404 48.3862 46.008 48.8902 45.736C49.3942 45.456 49.9582 45.316 50.5822 45.316C51.2062 45.316 51.7702 45.456 52.2742 45.736C52.7782 46.008 53.1742 46.4 53.4622 46.912C53.7582 47.424 53.9062 48.02 53.9062 48.7C53.9062 49.38 53.7542 49.98 53.4502 50.5C53.1542 51.012 52.7502 51.408 52.2382 51.688C51.7262 51.968 51.1582 52.108 50.5342 52.108ZM50.5342 51.148C50.9262 51.148 51.2942 51.056 51.6382 50.872C51.9822 50.688 52.2582 50.412 52.4662 50.044C52.6822 49.676 52.7902 49.228 52.7902 48.7C52.7902 48.172 52.6862 47.724 52.4782 47.356C52.2702 46.988 51.9982 46.716 51.6622 46.54C51.3262 46.356 50.9622 46.264 50.5702 46.264C50.1702 46.264 49.8022 46.356 49.4662 46.54C49.1382 46.716 48.8742 46.988 48.6742 47.356C48.4742 47.724 48.3742 48.172 48.3742 48.7C48.3742 49.236 48.4702 49.688 48.6622 50.056C48.8622 50.424 49.1262 50.7 49.4542 50.884C49.7822 51.06 50.1422 51.148 50.5342 51.148ZM58.21 52.108C57.594 52.108 57.034 51.968 56.53 51.688C56.034 51.408 55.642 51.012 55.354 50.5C55.074 49.98 54.934 49.38 54.934 48.7C54.934 48.028 55.078 47.436 55.366 46.924C55.662 46.404 56.062 46.008 56.566 45.736C57.07 45.456 57.634 45.316 58.258 45.316C58.882 45.316 59.446 45.456 59.95 45.736C60.454 46.008 60.85 46.4 61.138 46.912C61.434 47.424 61.582 48.02 61.582 48.7C61.582 49.38 61.43 49.98 61.126 50.5C60.83 51.012 60.426 51.408 59.914 51.688C59.402 51.968 58.834 52.108 58.21 52.108ZM58.21 51.148C58.602 51.148 58.97 51.056 59.314 50.872C59.658 50.688 59.934 50.412 60.142 50.044C60.358 49.676 60.466 49.228 60.466 48.7C60.466 48.172 60.362 47.724 60.154 47.356C59.946 46.988 59.674 46.716 59.338 46.54C59.002 46.356 58.638 46.264 58.246 46.264C57.846 46.264 57.478 46.356 57.142 46.54C56.814 46.716 56.55 46.988 56.35 47.356C56.15 47.724 56.05 48.172 56.05 48.7C56.05 49.236 56.146 49.688 56.338 50.056C56.538 50.424 56.802 50.7 57.13 50.884C57.458 51.06 57.818 51.148 58.21 51.148ZM65.7298 45.316C66.2978 45.316 66.7938 45.44 67.2178 45.688C67.6498 45.936 67.9698 46.248 68.1778 46.624V45.424H69.2818V52.144C69.2818 52.744 69.1538 53.276 68.8978 53.74C68.6418 54.212 68.2738 54.58 67.7938 54.844C67.3218 55.108 66.7698 55.24 66.1378 55.24C65.2738 55.24 64.5538 55.036 63.9778 54.628C63.4018 54.22 63.0618 53.664 62.9578 52.96H64.0378C64.1578 53.36 64.4058 53.68 64.7818 53.92C65.1578 54.168 65.6098 54.292 66.1378 54.292C66.7378 54.292 67.2258 54.104 67.6018 53.728C67.9858 53.352 68.1778 52.824 68.1778 52.144V50.764C67.9618 51.148 67.6418 51.468 67.2178 51.724C66.7938 51.98 66.2978 52.108 65.7298 52.108C65.1458 52.108 64.6138 51.964 64.1338 51.676C63.6618 51.388 63.2898 50.984 63.0178 50.464C62.7458 49.944 62.6098 49.352 62.6098 48.688C62.6098 48.016 62.7458 47.428 63.0178 46.924C63.2898 46.412 63.6618 46.016 64.1338 45.736C64.6138 45.456 65.1458 45.316 65.7298 45.316ZM68.1778 48.7C68.1778 48.204 68.0778 47.772 67.8778 47.404C67.6778 47.036 67.4058 46.756 67.0618 46.564C66.7258 46.364 66.3538 46.264 65.9458 46.264C65.5378 46.264 65.1658 46.36 64.8298 46.552C64.4938 46.744 64.2258 47.024 64.0258 47.392C63.8258 47.76 63.7258 48.192 63.7258 48.688C63.7258 49.192 63.8258 49.632 64.0258 50.008C64.2258 50.376 64.4938 50.66 64.8298 50.86C65.1658 51.052 65.5378 51.148 65.9458 51.148C66.3538 51.148 66.7258 51.052 67.0618 50.86C67.4058 50.66 67.6778 50.376 67.8778 50.008C68.0778 49.632 68.1778 49.196 68.1778 48.7ZM72.2191 43.12V52H71.1271V43.12H72.2191ZM80.0803 48.46C80.0803 48.668 80.0683 48.888 80.0443 49.12H74.7883C74.8283 49.768 75.0483 50.276 75.4483 50.644C75.8563 51.004 76.3483 51.184 76.9243 51.184C77.3963 51.184 77.7883 51.076 78.1003 50.86C78.4203 50.636 78.6443 50.34 78.7723 49.972H79.9483C79.7723 50.604 79.4203 51.12 78.8923 51.52C78.3643 51.912 77.7083 52.108 76.9243 52.108C76.3003 52.108 75.7403 51.968 75.2443 51.688C74.7563 51.408 74.3723 51.012 74.0923 50.5C73.8123 49.98 73.6723 49.38 73.6723 48.7C73.6723 48.02 73.8083 47.424 74.0803 46.912C74.3523 46.4 74.7323 46.008 75.2203 45.736C75.7163 45.456 76.2843 45.316 76.9243 45.316C77.5483 45.316 78.1003 45.452 78.5803 45.724C79.0603 45.996 79.4283 46.372 79.6843 46.852C79.9483 47.324 80.0803 47.86 80.0803 48.46ZM78.9523 48.232C78.9523 47.816 78.8603 47.46 78.6763 47.164C78.4923 46.86 78.2403 46.632 77.9203 46.48C77.6083 46.32 77.2603 46.24 76.8763 46.24C76.3243 46.24 75.8523 46.416 75.4603 46.768C75.0763 47.12 74.8563 47.608 74.8003 48.232H78.9523Z" fill="black"/>
<defs>
<filter id="filter0_d_2_2830" x="0" y="0" width="118.33" height="77" filterUnits="userSpaceOnUse" color-interpolation-filters="sRGB">
<feFlood flood-opacity="0" result="BackgroundImageFix"/>
<feColorMatrix in="SourceAlpha" type="matrix" values="0 0 0 0 0 0 0 0 0 0 0 0 0 0 0 0 0 0 127 0" result="hardAlpha"/>
<feOffset dy="5"/>
<feGaussianBlur stdDeviation="5"/>
<feColorMatrix type="matrix" values="0 0 0 0 0 0 0 0 0 0 0 0 0 0 0 0 0 0 0.05 0"/>
<feBlend mode="normal" in2="BackgroundImageFix" result="effect1_dropShadow_2_2830"/>
<feBlend mode="normal" in="SourceGraphic" in2="effect1_dropShadow_2_2830" result="shape"/>
</filter>
</defs>
</svg>
