<svg width="18" height="18" viewBox="0 0 18 18" fill="none" xmlns="http://www.w3.org/2000/svg">
<g clip-path="url(#clip0_3_3532)">
<path d="M8.51484 1.51171C7.98047 1.58905 7.37227 1.82108 6.94688 2.11991C6.68672 2.30273 2.69297 5.59687 2.45039 5.83241C2.04258 6.21913 1.72266 6.78515 1.575 7.36874L1.49414 7.68163V10.7578C1.49414 13.5598 1.50117 13.8551 1.55391 14.0695C1.81055 15.0715 2.36602 15.7887 3.21328 16.2141C3.71953 16.4707 3.88828 16.4953 5.05547 16.5164C5.92031 16.5269 6.12422 16.5199 6.34219 16.4707C6.90469 16.3476 7.33711 15.9187 7.46719 15.3633C7.51289 15.1805 7.52344 14.8676 7.52344 13.7566C7.52344 12.8812 7.5375 12.3117 7.56211 12.1922C7.62188 11.9039 7.75898 11.6508 7.98047 11.4117C8.57109 10.7824 9.42891 10.7824 10.0195 11.4152C10.241 11.6508 10.3781 11.9039 10.4379 12.1922C10.4625 12.3117 10.4766 12.8812 10.4766 13.7566C10.4766 14.8676 10.4871 15.1805 10.5328 15.3633C10.6629 15.9187 11.0953 16.3476 11.6578 16.4707C11.8758 16.5199 12.0797 16.5269 12.9445 16.5164C13.8516 16.5023 14.0063 16.4918 14.2453 16.425C14.748 16.2879 15.198 16.0242 15.5777 15.648C16.084 15.1383 16.3898 14.509 16.4883 13.7777C16.5164 13.5738 16.5234 12.5613 16.5164 10.5644C16.5023 7.6746 16.5023 7.64296 16.425 7.34765C16.2703 6.76405 15.9504 6.2121 15.532 5.81484C15.2754 5.56874 11.3238 2.30976 11.0496 2.11991C10.7402 1.90195 10.2832 1.69804 9.88945 1.59609C9.50625 1.50116 8.87695 1.45898 8.51484 1.51171Z" fill="#FFAF00"/>
</g>
<defs>
<clipPath id="clip0_3_3532">
<rect width="18" height="18" fill="white"/>
</clipPath>
</defs>
</svg>
