<svg width="150" height="80" viewBox="0 0 150 80" fill="none" xmlns="http://www.w3.org/2000/svg">
<path d="M0 39.7776V79.5257H39.7482H79.5257L66.2959 66.2959L53.0662 53.0661L39.8364 53.0073L26.6066 52.9191L26.5184 39.6894L26.4596 26.4596L13.2298 13.2298L0 -7.62939e-06V39.7776Z" fill="#1A9EB7"/>
<path d="M39.0756 46.185C37.8169 46.185 36.7609 45.801 35.9076 45.033C35.0543 44.2437 34.6063 43.2304 34.5636 41.993V31.529H39.0436V40.329C39.0863 40.9477 39.2463 41.449 39.5236 41.833C39.8009 42.1957 40.2703 42.377 40.9316 42.377C41.5929 42.377 42.1583 42.153 42.6276 41.705C43.1183 41.257 43.4916 40.649 43.7476 39.881C44.0249 39.0917 44.1636 38.2064 44.1636 37.225V31.529H48.6436V45.513H44.5796L44.2276 42.953L44.2916 43.241C43.9716 43.817 43.5663 44.329 43.0756 44.777C42.5849 45.225 41.9983 45.5664 41.3156 45.801C40.6543 46.057 39.9076 46.185 39.0756 46.185Z" fill="#FF8600"/>
<path d="M59.5871 35.977L62.2431 31.529H66.6911L61.1551 39.209L59.5871 35.977ZM67.4591 45.513H62.0511L51.2671 31.529H56.7711L67.4591 45.513ZM59.0111 41.033L55.8751 45.513H51.4271L56.9631 38.025L59.0111 41.033Z" fill="#FF8600"/>
<path d="M76.6623 45.897C74.9557 45.897 73.505 45.577 72.3103 44.937C71.137 44.297 70.241 43.4117 69.6223 42.281C69.0037 41.1504 68.6943 39.849 68.6943 38.377C68.6943 36.969 69.057 35.6997 69.7823 34.569C70.5077 33.4384 71.4783 32.5424 72.6943 31.881C73.9103 31.1984 75.265 30.857 76.7584 30.857C78.7637 30.857 80.4063 31.4437 81.6863 32.617C82.9877 33.769 83.8303 35.4437 84.2143 37.641L73.3344 41.097L72.3424 38.665L80.2143 36.009L79.2864 36.425C79.1157 35.8704 78.8064 35.3904 78.3583 34.985C77.9317 34.5584 77.281 34.345 76.4063 34.345C75.745 34.345 75.1583 34.505 74.6463 34.825C74.1557 35.1237 73.7717 35.561 73.4944 36.137C73.2383 36.6917 73.1103 37.353 73.1103 38.121C73.1103 38.9957 73.2703 39.7317 73.5903 40.329C73.9103 40.905 74.3477 41.3424 74.9023 41.641C75.457 41.9397 76.0757 42.089 76.7584 42.089C77.249 42.089 77.7183 42.0037 78.1663 41.833C78.6357 41.6624 79.0943 41.4384 79.5423 41.161L81.5263 44.489C80.7797 44.9157 79.969 45.257 79.0943 45.513C78.241 45.769 77.4304 45.897 76.6623 45.897Z" fill="#FF8600"/>
<path d="M88.2058 21.961H92.8458V41.033H103.918V45.513H88.2058V21.961Z" fill="#FF8600"/>
<path d="M106.882 38.345C106.882 36.9157 107.213 35.6357 107.874 34.505C108.557 33.3744 109.506 32.489 110.722 31.849C111.938 31.1877 113.335 30.857 114.914 30.857C116.514 30.857 117.901 31.1877 119.074 31.849C120.247 32.489 121.143 33.3744 121.762 34.505C122.402 35.6357 122.722 36.9157 122.722 38.345C122.722 39.7744 122.402 41.065 121.762 42.217C121.143 43.3477 120.247 44.2437 119.074 44.905C117.901 45.5664 116.493 45.897 114.85 45.897C113.314 45.897 111.938 45.5984 110.722 45.001C109.527 44.4037 108.589 43.5397 107.906 42.409C107.223 41.2784 106.882 39.9237 106.882 38.345ZM111.394 38.377C111.394 39.1024 111.543 39.7637 111.842 40.361C112.141 40.937 112.546 41.3957 113.058 41.737C113.57 42.0784 114.146 42.249 114.786 42.249C115.49 42.249 116.098 42.0784 116.61 41.737C117.122 41.3957 117.517 40.937 117.794 40.361C118.071 39.7637 118.21 39.1024 118.21 38.377C118.21 37.6304 118.071 36.969 117.794 36.393C117.517 35.817 117.122 35.3584 116.61 35.017C116.098 34.6757 115.49 34.505 114.786 34.505C114.146 34.505 113.57 34.6757 113.058 35.017C112.546 35.3584 112.141 35.817 111.842 36.393C111.543 36.969 111.394 37.6304 111.394 38.377Z" fill="#FF8600"/>
<path d="M127.595 45.513V35.433H125.227V31.465H127.595V26.601C127.595 24.7664 128.118 23.273 129.163 22.121C130.23 20.9477 131.766 20.361 133.771 20.361C134.368 20.361 135.03 20.457 135.755 20.649C136.502 20.8197 137.152 21.1077 137.707 21.513L135.819 24.745C135.606 24.4677 135.35 24.2864 135.051 24.201C134.774 24.0944 134.507 24.041 134.251 24.041C133.611 24.041 133.088 24.2544 132.683 24.681C132.278 25.1077 132.075 25.7904 132.075 26.729V31.465H136.299V35.433H132.075V45.513H127.595Z" fill="#FF8600"/>
<path d="M141.469 25.385H145.949V31.465H149.341V34.953H145.949V45.513H141.469V34.953H139.293V31.465H141.469V25.385Z" fill="#FF8600"/>
</svg>
