<svg width="18" height="18" viewBox="0 0 18 18" fill="none" xmlns="http://www.w3.org/2000/svg">
<g clip-path="url(#clip0_3_3547)">
<path d="M7.87502 0.0527172C4.35588 0.488655 1.39924 2.98123 0.372674 6.37381C0.0843929 7.32654 -0.0175602 8.12811 0.0105648 9.26014C0.045721 10.6805 0.312909 11.7773 0.93869 13.0324L1.16721 13.493L0.580096 15.3176C0.0351742 17.0086 -0.00701334 17.1527 0.00704916 17.3531C0.0316585 17.7363 0.26369 17.9683 0.646893 17.993C0.847284 18.007 0.991424 17.9648 2.68244 17.4199L4.50705 16.8328L4.9676 17.0613C5.83596 17.4937 6.61642 17.7433 7.62892 17.9156C8.08596 17.993 9.39728 18.0211 9.93517 17.9648C13.5317 17.5992 16.5797 15.089 17.6274 11.6226C17.8875 10.7683 18 9.97733 18 8.99998C18 8.26522 17.9649 7.86092 17.8383 7.22459C17.2477 4.22928 15.1629 1.74022 12.2836 0.597639C11.6438 0.341 10.7016 0.112484 9.97736 0.0351391C9.51681 -0.01408 8.32853 -0.00353241 7.87502 0.0527172ZM10.2481 1.52576C11.8582 1.82459 13.2117 2.52772 14.3403 3.65975C15.3035 4.61951 15.9785 5.78319 16.3125 7.04529C16.5129 7.8117 16.541 8.02615 16.541 8.99998C16.541 9.97381 16.5129 10.1883 16.3125 10.9547C15.9785 12.2168 15.3035 13.3805 14.3403 14.3402C13.2117 15.4722 11.8512 16.1789 10.2481 16.4742C9.82971 16.548 8.67306 16.5797 8.19494 16.5269C7.70627 16.4742 7.22111 16.3722 6.76056 16.2281C6.24728 16.0629 5.97306 15.9469 5.31916 15.6094C4.76721 15.3211 4.76369 15.3211 4.55275 15.3387C4.42267 15.3527 3.85314 15.518 3.09377 15.764C2.40822 15.9855 1.84572 16.1648 1.83869 16.1613C1.83517 16.1543 2.01447 15.5918 2.23596 14.9062C2.48205 14.1469 2.64728 13.5773 2.66135 13.4472C2.67892 13.2469 2.67189 13.2222 2.51369 12.9199C2.09181 12.1254 1.95471 11.8125 1.77189 11.2394C1.62775 10.7789 1.5258 10.2937 1.47306 9.80506C1.42033 9.32694 1.45197 8.17029 1.5258 7.75194C1.82111 6.14881 2.52775 4.78826 3.65978 3.65975C4.26096 3.05506 4.88674 2.60155 5.62502 2.2324C6.45119 1.81756 7.13322 1.61366 8.209 1.46248C8.47619 1.42381 9.94572 1.46951 10.2481 1.52576Z" fill="#1C1C1C"/>
<path d="M5.11523 8.18789C4.7918 8.33203 4.60547 8.63086 4.60547 9C4.60547 9.52031 4.96406 9.87891 5.48438 9.87891C6.00469 9.87891 6.36328 9.52031 6.36328 9C6.36328 8.47969 6.00469 8.12109 5.48438 8.12109C5.33672 8.12109 5.20664 8.1457 5.11523 8.18789Z" fill="#1C1C1C"/>
<path d="M8.63086 8.18789C8.30742 8.33203 8.12109 8.63086 8.12109 9C8.12109 9.52031 8.47969 9.87891 9 9.87891C9.52031 9.87891 9.87891 9.52031 9.87891 9C9.87891 8.47969 9.52031 8.12109 9 8.12109C8.85234 8.12109 8.72227 8.1457 8.63086 8.18789Z" fill="#1C1C1C"/>
<path d="M12.1465 8.18789C11.823 8.33203 11.6367 8.63086 11.6367 9C11.6367 9.52031 11.9953 9.87891 12.5156 9.87891C13.0359 9.87891 13.3945 9.52031 13.3945 9C13.3945 8.47969 13.0359 8.12109 12.5156 8.12109C12.368 8.12109 12.2379 8.1457 12.1465 8.18789Z" fill="#1C1C1C"/>
</g>
<defs>
<clipPath id="clip0_3_3547">
<rect width="18" height="18" fill="white"/>
</clipPath>
</defs>
</svg>
