<svg width="70" height="72" viewBox="0 0 70 72" fill="none" xmlns="http://www.w3.org/2000/svg">
<g filter="url(#filter0_d_2_2430)">
<circle cx="34.2205" cy="31.2205" r="19.2903" fill="url(#paint0_linear_2_2430)"/>
<path d="M54.7819 15.7682C51.4333 11.3125 46.728 8.06512 41.3742 6.51488C36.0205 4.96464 30.308 5.19546 25.0968 7.17259C19.8856 9.14971 15.4576 12.7661 12.4795 17.4775C9.50132 22.1888 8.13419 27.7401 8.58387 33.2956C9.03356 38.8511 11.2757 44.1102 14.9728 48.2812C18.6699 52.4522 23.6219 55.3094 29.0833 56.4227" stroke="url(#paint1_linear_2_2430)"/>
<path d="M38.1233 53.2252C42.8903 52.4674 47.2825 50.1814 50.6386 46.7114C53.9948 43.2414 56.1334 38.7752 56.7324 33.985C57.3314 29.1949 56.3584 24.3401 53.9599 20.1514C51.5615 15.9628 47.8673 12.667 43.4335 10.7602C38.9998 8.85336 34.0663 8.43873 29.376 9.57871C24.6856 10.7187 20.492 13.3516 17.4267 17.081" stroke="url(#paint2_linear_2_2430)"/>
<path d="M25.9532 30.3019H39.3517L34.4896 25.4398L35.7885 24.1409L42.868 31.2205L35.7885 38.3L34.4896 37.0012L39.3517 32.1391H25.9532V30.3019Z" fill="white"/>
</g>
<defs>
<filter id="filter0_d_2_2430" x="0" y="0" width="69.4047" height="71.9126" filterUnits="userSpaceOnUse" color-interpolation-filters="sRGB">
<feFlood flood-opacity="0" result="BackgroundImageFix"/>
<feColorMatrix in="SourceAlpha" type="matrix" values="0 0 0 0 0 0 0 0 0 0 0 0 0 0 0 0 0 0 127 0" result="hardAlpha"/>
<feOffset dx="2" dy="5"/>
<feGaussianBlur stdDeviation="5"/>
<feComposite in2="hardAlpha" operator="out"/>
<feColorMatrix type="matrix" values="0 0 0 0 0 0 0 0 0 0 0 0 0 0 0 0 0 0 0.2 0"/>
<feBlend mode="normal" in2="BackgroundImageFix" result="effect1_dropShadow_2_2430"/>
<feBlend mode="normal" in="SourceGraphic" in2="effect1_dropShadow_2_2430" result="shape"/>
</filter>
<linearGradient id="paint0_linear_2_2430" x1="34.2205" y1="11.9301" x2="34.2205" y2="50.5108" gradientUnits="userSpaceOnUse">
<stop stop-color="#FF7D00"/>
<stop offset="1" stop-color="#FFB400"/>
</linearGradient>
<linearGradient id="paint1_linear_2_2430" x1="31.6409" y1="5.5" x2="31.6409" y2="56.4227" gradientUnits="userSpaceOnUse">
<stop stop-color="#FF7D00"/>
<stop offset="1" stop-color="#FFB400"/>
</linearGradient>
<linearGradient id="paint2_linear_2_2430" x1="55.3601" y1="39.6721" x2="16.3901" y2="19.0388" gradientUnits="userSpaceOnUse">
<stop stop-color="#FF7D00"/>
<stop offset="1" stop-color="#FFB400"/>
</linearGradient>
</defs>
</svg>
