<svg width="24" height="24" viewBox="0 0 24 24" fill="none" xmlns="http://www.w3.org/2000/svg">
<path d="M11.6748 17C12.0199 17.0001 12.2998 17.2799 12.2998 17.625C12.2998 17.9701 12.0199 18.2499 11.6748 18.25H11.5752C11.23 18.25 10.9502 17.9702 10.9502 17.625C10.9502 17.2798 11.23 17 11.5752 17H11.6748Z" fill="#B3B3B3"/>
<path fill-rule="evenodd" clip-rule="evenodd" d="M15.625 1C17.0747 1 18.25 2.17525 18.25 3.625V19.625C18.25 21.0747 17.0747 22.25 15.625 22.25H7.625C6.17525 22.25 5 21.0747 5 19.625V3.625C5 2.17525 6.17525 1 7.625 1L15.625 1ZM7.625 2.25C6.86561 2.25 6.25 2.86561 6.25 3.625V19.625C6.25 20.3844 6.86561 21 7.625 21H15.625C16.3844 21 17 20.3844 17 19.625V3.625C17 2.86561 16.3844 2.25 15.625 2.25H7.625Z" fill="#B3B3B3"/>
</svg>
