<svg width="18" height="18" viewBox="0 0 18 18" fill="none" xmlns="http://www.w3.org/2000/svg">
<path d="M8.7561 12.75C9.01492 12.7501 9.22485 12.9599 9.22485 13.2188C9.22485 13.4776 9.01492 13.6874 8.7561 13.6875H8.6814C8.42251 13.6875 8.21265 13.4776 8.21265 13.2188C8.21265 12.9599 8.42251 12.75 8.6814 12.75H8.7561Z" fill="#B3B3B3"/>
<path fill-rule="evenodd" clip-rule="evenodd" d="M11.7188 0.75C12.8061 0.75 13.6875 1.63144 13.6875 2.71875V14.7188C13.6875 15.8061 12.8061 16.6875 11.7188 16.6875H5.71875C4.63144 16.6875 3.75 15.8061 3.75 14.7188V2.71875C3.75 1.63144 4.63144 0.75 5.71875 0.75L11.7188 0.75ZM5.71875 1.6875C5.14921 1.6875 4.6875 2.14921 4.6875 2.71875V14.7188C4.6875 15.2883 5.14921 15.75 5.71875 15.75H11.7188C12.2883 15.75 12.75 15.2883 12.75 14.7188V2.71875C12.75 2.14921 12.2883 1.6875 11.7188 1.6875H5.71875Z" fill="#B3B3B3"/>
</svg>
