<svg width="18" height="18" viewBox="0 0 18 18" fill="none" xmlns="http://www.w3.org/2000/svg">
<g clip-path="url(#clip0_3_3563)">
<g clip-path="url(#clip1_3_3563)">
<g clip-path="url(#clip2_3_3563)">
<path d="M8.26173 0.0246296C7.6465 0.123067 7.11213 0.30588 6.7008 0.551973C6.06447 0.931661 5.48439 1.50822 5.1047 2.134C4.90783 2.45744 4.73205 2.90744 4.63361 3.32229C4.53166 3.76174 4.50705 4.64065 4.58439 5.08361C4.80939 6.37736 5.58634 7.47424 6.75705 8.14572C7.91017 8.80666 9.4465 8.86291 10.7086 8.29338C11.1305 8.10354 11.5278 7.81174 11.9391 7.40393C12.8602 6.48283 13.2645 5.43518 13.2082 4.14143C13.1555 2.99182 12.7653 2.0883 11.9637 1.27619C11.3238 0.625801 10.5258 0.207442 9.64338 0.0527544C9.36564 0.00353527 8.49377 -0.0140429 8.26173 0.0246296ZM9.76642 1.19182C10.2938 1.3465 10.7719 1.6383 11.1903 2.06369C11.6086 2.48908 11.8406 2.87932 12.0129 3.43479C12.1008 3.71955 12.1078 3.78986 12.1078 4.34182C12.1043 4.88674 12.0973 4.9676 12.0129 5.24885C11.8512 5.77971 11.6156 6.17346 11.2008 6.60236C10.582 7.24572 9.75939 7.59377 8.88049 7.59377C8.00861 7.59025 7.29142 7.30549 6.66916 6.71486C6.184 6.25432 5.88869 5.78674 5.72345 5.21369C5.65314 4.97463 5.64259 4.86213 5.64611 4.32424C5.64611 3.75471 5.65314 3.68439 5.74455 3.3926C5.98361 2.61564 6.53556 1.9301 7.27736 1.49064C7.55158 1.32893 7.81877 1.22697 8.19494 1.1426C8.53595 1.06525 9.42892 1.09338 9.76642 1.19182Z" fill="#1C1C1C"/>
<path d="M4.95703 8.70472C4.14492 8.82425 3.52969 9.12659 3.01289 9.65745C2.02852 10.67 1.47656 12.4664 1.47656 14.6637C1.47656 15.5918 1.54336 15.9223 1.83867 16.5059C1.94766 16.7203 2.06016 16.8645 2.30273 17.1071C2.64727 17.4551 2.94609 17.652 3.36445 17.7996C3.94453 18.0106 3.75117 18.0035 9.12656 17.993L14.0449 17.9824L14.3438 17.891C14.7234 17.7715 14.9238 17.6836 15.177 17.5219C15.7641 17.1492 16.1965 16.5586 16.3828 15.8907C16.4953 15.4723 16.527 14.9731 16.4883 14.2032C16.3125 10.7578 15.0047 8.81721 12.7793 8.69417C12.3012 8.66956 12.2941 8.66956 11.475 9.1969C10.8422 9.6012 10.4027 9.80159 9.81914 9.95276C9.37969 10.0688 8.59219 10.0688 8.15625 9.95628C7.53398 9.79456 7.11562 9.6012 6.48281 9.18987C6.25078 9.0387 5.96602 8.86292 5.84297 8.79964C5.63906 8.69417 5.59336 8.68362 5.3332 8.68714C5.175 8.69065 5.00625 8.69768 4.95703 8.70472ZM5.88867 10.1145C6.51797 10.5188 6.98555 10.7473 7.53047 10.9125C8.59219 11.2324 9.59766 11.2114 10.6559 10.8422C11.1375 10.677 11.482 10.4977 12.1043 10.0969L12.6246 9.76643L12.8391 9.78753C14.1363 9.93518 14.9238 10.9969 15.2754 13.0606C15.3809 13.6723 15.4441 14.8149 15.3984 15.2262C15.3035 16.077 14.7727 16.6676 13.9289 16.8645C13.6758 16.9242 13.3699 16.9278 8.96484 16.9278C3.74766 16.9278 4.07812 16.9418 3.5543 16.6922C3.26602 16.5551 2.90391 16.2 2.77031 15.9258C2.60156 15.5742 2.56641 15.3563 2.56641 14.6742C2.56992 12.8215 3.00234 11.2957 3.76875 10.459C4.06406 10.1356 4.4332 9.92815 4.9043 9.8262C5.30156 9.73831 5.31211 9.74183 5.88867 10.1145Z" fill="#1C1C1C"/>
</g>
</g>
</g>
<defs>
<clipPath id="clip0_3_3563">
<rect width="18" height="18" fill="white"/>
</clipPath>
<clipPath id="clip1_3_3563">
<rect width="18" height="18" fill="white"/>
</clipPath>
<clipPath id="clip2_3_3563">
<rect width="18" height="18" fill="white"/>
</clipPath>
</defs>
</svg>
