<svg width="18" height="18" viewBox="0 0 18 18" fill="none" xmlns="http://www.w3.org/2000/svg">
<path d="M2.96394 0C2.17786 0 1.42397 0.312272 0.868119 0.868119C0.312272 1.42397 0 2.17786 0 2.96394V5.26923C0 5.44392 0.0693937 5.61145 0.192915 5.73497C0.316437 5.85849 0.483968 5.92788 0.658654 5.92788C0.83334 5.92788 1.00087 5.85849 1.12439 5.73497C1.24791 5.61145 1.31731 5.44392 1.31731 5.26923V2.96394C1.31731 2.52723 1.49079 2.1084 1.7996 1.7996C2.1084 1.49079 2.52723 1.31731 2.96394 1.31731H5.26923C5.44392 1.31731 5.61145 1.24791 5.73497 1.12439C5.85849 1.00087 5.92788 0.83334 5.92788 0.658654C5.92788 0.483968 5.85849 0.316437 5.73497 0.192915C5.61145 0.0693937 5.44392 0 5.26923 0H2.96394ZM11.8558 0C11.6811 0 11.5136 0.0693937 11.39 0.192915C11.2665 0.316437 11.1971 0.483968 11.1971 0.658654C11.1971 0.83334 11.2665 1.00087 11.39 1.12439C11.5136 1.24791 11.6811 1.31731 11.8558 1.31731H14.1611C14.5978 1.31731 15.0166 1.49079 15.3254 1.7996C15.6342 2.1084 15.8077 2.52723 15.8077 2.96394V5.26923C15.8077 5.44392 15.8771 5.61145 16.0006 5.73497C16.1241 5.85849 16.2917 5.92788 16.4663 5.92788C16.641 5.92788 16.8086 5.85849 16.9321 5.73497C17.0556 5.61145 17.125 5.44392 17.125 5.26923V2.96394C17.125 2.17786 16.8127 1.42397 16.2569 0.868119C15.701 0.312272 14.9471 0 14.1611 0H11.8558ZM1.31731 11.8558C1.31731 11.6811 1.24791 11.5136 1.12439 11.39C1.00087 11.2665 0.83334 11.1971 0.658654 11.1971C0.483968 11.1971 0.316437 11.2665 0.192915 11.39C0.0693937 11.5136 0 11.6811 0 11.8558V14.1611C0 14.9471 0.312272 15.701 0.868119 16.2569C1.42397 16.8127 2.17786 17.125 2.96394 17.125H5.26923C5.44392 17.125 5.61145 17.0556 5.73497 16.9321C5.85849 16.8086 5.92788 16.641 5.92788 16.4663C5.92788 16.2917 5.85849 16.1241 5.73497 16.0006C5.61145 15.8771 5.44392 15.8077 5.26923 15.8077H2.96394C2.52723 15.8077 2.1084 15.6342 1.7996 15.3254C1.49079 15.0166 1.31731 14.5978 1.31731 14.1611V11.8558ZM17.125 11.8558C17.125 11.6811 17.0556 11.5136 16.9321 11.39C16.8086 11.2665 16.641 11.1971 16.4663 11.1971C16.2917 11.1971 16.1241 11.2665 16.0006 11.39C15.8771 11.5136 15.8077 11.6811 15.8077 11.8558V14.1611C15.8077 14.5978 15.6342 15.0166 15.3254 15.3254C15.0166 15.6342 14.5978 15.8077 14.1611 15.8077H11.8558C11.6811 15.8077 11.5136 15.8771 11.39 16.0006C11.2665 16.1241 11.1971 16.2917 11.1971 16.4663C11.1971 16.641 11.2665 16.8086 11.39 16.9321C11.5136 17.0556 11.6811 17.125 11.8558 17.125H14.1611C14.9471 17.125 15.701 16.8127 16.2569 16.2569C16.8127 15.701 17.125 14.9471 17.125 14.1611V11.8558ZM3.95192 7.90385C3.77724 7.90385 3.60971 7.97324 3.48618 8.09676C3.36266 8.22028 3.29327 8.38781 3.29327 8.5625C3.29327 8.73719 3.36266 8.90472 3.48618 9.02824C3.60971 9.15176 3.77724 9.22115 3.95192 9.22115H13.1731C13.3478 9.22115 13.5153 9.15176 13.6388 9.02824C13.7623 8.90472 13.8317 8.73719 13.8317 8.5625C13.8317 8.38781 13.7623 8.22028 13.6388 8.09676C13.5153 7.97324 13.3478 7.90385 13.1731 7.90385H3.95192Z" fill="black"/>
</svg>
